<mxfile host="Electron" agent="Mozilla/5.0 (Macintosh; Intel Mac OS X 10_15_7) AppleWebKit/537.36 (KHTML, like Gecko) draw.io/26.1.1 Chrome/132.0.6834.210 Electron/34.3.3 Safari/537.36" version="26.1.1">
  <diagram name="Page-1" id="FBI311fZpqJg8Y9gNDSh">
    <mxGraphModel dx="1114" dy="878" grid="1" gridSize="10" guides="1" tooltips="1" connect="1" arrows="1" fold="1" page="1" pageScale="1" pageWidth="827" pageHeight="1169" math="0" shadow="0">
      <root>
        <mxCell id="0" />
        <mxCell id="1" parent="0" />
        <mxCell id="w_MjQ9cR7jHezwx8Y9D--1" style="rounded=0;orthogonalLoop=1;jettySize=auto;html=1;entryX=0.37;entryY=-0.075;entryDx=0;entryDy=0;endArrow=block;endFill=1;entryPerimeter=0;" parent="1" target="w_MjQ9cR7jHezwx8Y9D--7" edge="1">
          <mxGeometry relative="1" as="geometry">
            <mxPoint x="310" y="240" as="sourcePoint" />
          </mxGeometry>
        </mxCell>
        <mxCell id="w_MjQ9cR7jHezwx8Y9D--2" value="Job&lt;div&gt;ParentCoroutine&lt;/div&gt;" style="rounded=0;whiteSpace=wrap;html=1;fillColor=#f5f5f5;strokeColor=#666666;fontColor=#333333;" parent="1" vertex="1">
          <mxGeometry x="260" y="200" width="100" height="40" as="geometry" />
        </mxCell>
        <mxCell id="w_MjQ9cR7jHezwx8Y9D--3" style="edgeStyle=orthogonalEdgeStyle;rounded=0;orthogonalLoop=1;jettySize=auto;html=1;entryX=0.5;entryY=0;entryDx=0;entryDy=0;endArrow=block;endFill=1;" parent="1" source="w_MjQ9cR7jHezwx8Y9D--4" target="w_MjQ9cR7jHezwx8Y9D--2" edge="1">
          <mxGeometry relative="1" as="geometry" />
        </mxCell>
        <mxCell id="w_MjQ9cR7jHezwx8Y9D--4" value="SupervisorJob&lt;div&gt;SupervisorJob()&lt;/div&gt;" style="rounded=0;whiteSpace=wrap;html=1;fillColor=#f8cecc;strokeColor=#b85450;" parent="1" vertex="1">
          <mxGeometry x="260" y="110" width="100" height="40" as="geometry" />
        </mxCell>
        <mxCell id="w_MjQ9cR7jHezwx8Y9D--5" style="rounded=0;orthogonalLoop=1;jettySize=auto;html=1;entryX=0.5;entryY=0;entryDx=0;entryDy=0;endArrow=block;endFill=1;exitX=0.5;exitY=1;exitDx=0;exitDy=0;" parent="1" edge="1">
          <mxGeometry relative="1" as="geometry">
            <mxPoint x="268" y="330" as="sourcePoint" />
            <mxPoint x="218" y="380" as="targetPoint" />
          </mxGeometry>
        </mxCell>
        <mxCell id="w_MjQ9cR7jHezwx8Y9D--6" value="Job&lt;div&gt;Coroutine1&lt;/div&gt;" style="rounded=0;whiteSpace=wrap;html=1;fillColor=#f5f5f5;fontColor=#333333;strokeColor=#666666;" parent="1" vertex="1">
          <mxGeometry x="200" y="290" width="100" height="40" as="geometry" />
        </mxCell>
        <mxCell id="w_MjQ9cR7jHezwx8Y9D--7" value="Job&lt;div&gt;Coroutine2&lt;/div&gt;" style="rounded=0;whiteSpace=wrap;html=1;fillColor=#f5f5f5;strokeColor=#666666;fontColor=#333333;" parent="1" vertex="1">
          <mxGeometry x="320" y="290" width="100" height="40" as="geometry" />
        </mxCell>
        <mxCell id="w_MjQ9cR7jHezwx8Y9D--8" style="rounded=0;orthogonalLoop=1;jettySize=auto;html=1;entryX=0.5;entryY=1;entryDx=0;entryDy=0;exitX=0.5;exitY=0;exitDx=0;exitDy=0;dashed=1;strokeColor=#FF3333;strokeWidth=2;" parent="1" source="w_MjQ9cR7jHezwx8Y9D--9" target="w_MjQ9cR7jHezwx8Y9D--6" edge="1">
          <mxGeometry relative="1" as="geometry" />
        </mxCell>
        <mxCell id="w_MjQ9cR7jHezwx8Y9D--9" value="Job&lt;div&gt;Coroutine3&lt;/div&gt;" style="rounded=0;whiteSpace=wrap;html=1;fillColor=#f5f5f5;fontColor=#333333;strokeColor=#666666;" parent="1" vertex="1">
          <mxGeometry x="150" y="380" width="100" height="40" as="geometry" />
        </mxCell>
        <mxCell id="w_MjQ9cR7jHezwx8Y9D--10" style="rounded=0;orthogonalLoop=1;jettySize=auto;html=1;entryX=0.62;entryY=-0.025;entryDx=0;entryDy=0;endArrow=block;endFill=1;exitX=0.5;exitY=1;exitDx=0;exitDy=0;entryPerimeter=0;" parent="1" source="w_MjQ9cR7jHezwx8Y9D--2" target="w_MjQ9cR7jHezwx8Y9D--6" edge="1">
          <mxGeometry relative="1" as="geometry">
            <mxPoint x="330" y="240" as="sourcePoint" />
            <mxPoint x="270" y="290" as="targetPoint" />
          </mxGeometry>
        </mxCell>
        <mxCell id="w_MjQ9cR7jHezwx8Y9D--11" value="예외 전파" style="text;html=1;align=center;verticalAlign=middle;whiteSpace=wrap;rounded=0;fontStyle=1" parent="1" vertex="1">
          <mxGeometry x="158" y="340" width="60" height="30" as="geometry" />
        </mxCell>
        <mxCell id="w_MjQ9cR7jHezwx8Y9D--12" value="" style="shape=mxgraph.mockup.markup.redX;fillColor=#ff0000;html=1;shadow=0;whiteSpace=wrap;strokeColor=none;" parent="1" vertex="1">
          <mxGeometry x="189" y="295" width="22" height="30" as="geometry" />
        </mxCell>
        <mxCell id="w_MjQ9cR7jHezwx8Y9D--13" value="" style="shape=mxgraph.mockup.markup.redX;fillColor=#ff0000;html=1;shadow=0;whiteSpace=wrap;strokeColor=none;" parent="1" vertex="1">
          <mxGeometry x="139" y="385" width="22" height="30" as="geometry" />
        </mxCell>
        <mxCell id="w_MjQ9cR7jHezwx8Y9D--14" value="" style="shape=mxgraph.mockup.markup.redX;fillColor=#ff0000;html=1;shadow=0;whiteSpace=wrap;strokeColor=none;" parent="1" vertex="1">
          <mxGeometry x="246" y="205" width="22" height="30" as="geometry" />
        </mxCell>
        <mxCell id="w_MjQ9cR7jHezwx8Y9D--16" value="" style="shape=mxgraph.mockup.markup.redX;fillColor=#ff0000;html=1;shadow=0;whiteSpace=wrap;strokeColor=none;" parent="1" vertex="1">
          <mxGeometry x="409" y="295" width="22" height="30" as="geometry" />
        </mxCell>
        <mxCell id="w_MjQ9cR7jHezwx8Y9D--17" style="rounded=0;orthogonalLoop=1;jettySize=auto;html=1;entryX=0.5;entryY=1;entryDx=0;entryDy=0;exitX=0.5;exitY=0;exitDx=0;exitDy=0;dashed=1;strokeColor=#FF3333;strokeWidth=2;" parent="1" edge="1">
          <mxGeometry relative="1" as="geometry">
            <mxPoint x="244" y="290" as="sourcePoint" />
            <mxPoint x="294" y="240" as="targetPoint" />
          </mxGeometry>
        </mxCell>
        <mxCell id="w_MjQ9cR7jHezwx8Y9D--18" style="rounded=0;orthogonalLoop=1;jettySize=auto;html=1;entryX=0.75;entryY=1;entryDx=0;entryDy=0;exitX=0.66;exitY=-0.075;exitDx=0;exitDy=0;dashed=1;strokeColor=#FF3333;strokeWidth=2;exitPerimeter=0;startArrow=block;startFill=1;endArrow=none;" parent="1" edge="1">
          <mxGeometry relative="1" as="geometry">
            <mxPoint x="381" y="287" as="sourcePoint" />
            <mxPoint x="330" y="240" as="targetPoint" />
          </mxGeometry>
        </mxCell>
        <mxCell id="w_MjQ9cR7jHezwx8Y9D--19" value="예외 발생" style="text;html=1;align=center;verticalAlign=middle;whiteSpace=wrap;rounded=0;fontStyle=1" parent="1" vertex="1">
          <mxGeometry x="80" y="385" width="60" height="30" as="geometry" />
        </mxCell>
        <mxCell id="w_MjQ9cR7jHezwx8Y9D--20" value="예외 전파" style="text;html=1;align=center;verticalAlign=middle;whiteSpace=wrap;rounded=0;fontStyle=1" parent="1" vertex="1">
          <mxGeometry x="200" y="250" width="60" height="30" as="geometry" />
        </mxCell>
        <mxCell id="w_MjQ9cR7jHezwx8Y9D--21" value="취소 전파" style="text;html=1;align=center;verticalAlign=middle;whiteSpace=wrap;rounded=0;fontStyle=1" parent="1" vertex="1">
          <mxGeometry x="360" y="240" width="60" height="30" as="geometry" />
        </mxCell>
      </root>
    </mxGraphModel>
  </diagram>
</mxfile>
